<?xml version="1.0" encoding="utf-8"?>
<!-- Generator: Adobe Illustrator 21.0.0, SVG Export Plug-In . SVG Version: 6.00 Build 0)  -->
<svg version="1.1" xmlns="http://www.w3.org/2000/svg" xmlns:xlink="http://www.w3.org/1999/xlink" x="0px" y="0px"
	 viewBox="0 0 90.2 90.2" style="enable-background:new 0 0 90.2 90.2;" xml:space="preserve">
<style type="text/css">
	.st0{fill:#15A4E3;}
</style>
<g id="icons">
</g>
<g id="back">
	<g>
		<path class="st0" d="M39.6,61c-1.5,0-3.1-0.4-5.2-1.5c-4.6-2.4-7.6-6.9-8.1-8.2c-0.3-0.7-0.4-1.4-0.6-2.4c-0.1-0.5-0.2-1-0.3-1.7
			c-0.4-1.9-0.2-3.3-0.1-3.4l1,0.2c0,0-0.2,1.3,0.1,3c0.1,0.6,0.2,1.2,0.3,1.7c0.1,0.9,0.2,1.5,0.5,2.1c0.3,0.7,3,5.2,7.7,7.6
			c4.4,2.2,6.2,1.5,10.6-0.3l0.4-0.2c4.6-1.9,12.2-5.5,12.3-5.6c0,0,2.8-1.5,4.4-4.1c1.5-2.6,1.6-8.1,1.3-9.4l1-0.2
			c0.3,1.3,0.4,7.2-1.4,10.2c-1.7,2.8-4.7,4.4-4.8,4.4c-0.1,0-7.7,3.7-12.4,5.6l-0.4,0.2C43.3,60.3,41.5,61,39.6,61z"/>
		<path class="st0" d="M39.2,54.3c-1.7,0-3.8-0.5-6.1-2.1c-4.5-3.3-6.5-5.3-6.6-5.4c0,0-1.4-1.3-1.3-3.2c0.1-1.5,1.1-2.9,2.9-4.2
			c5-3.6,10.7-7.3,12.3-8.3c0.2-0.1,3.6-2.3,9.7-2c6,0.3,11.3,2.7,13.4,6.1c2,3.3,1.7,6.9-0.9,9.6c-2.8,2.9-18.8,8.5-19.6,8.7
			c-0.1,0-0.2,0.1-0.4,0.1C42,53.9,40.8,54.3,39.2,54.3z M49,30.2c-5.1,0-7.9,1.8-8,1.8l0,0c-1.6,1-7.2,4.7-12.3,8.3
			c-1.6,1.1-2.4,2.3-2.5,3.4c-0.1,1.4,0.9,2.4,0.9,2.4c0,0,2.1,2.1,6.5,5.3c3.9,2.9,7.3,1.8,8.7,1.3c0.2,0,0.3-0.1,0.4-0.1
			c1.3-0.3,16.6-5.8,19.1-8.4c2.3-2.4,2.5-5.5,0.7-8.4c-1.9-3.1-7-5.4-12.6-5.6C49.7,30.2,49.3,30.2,49,30.2z"/>
		<path class="st0" d="M45.1,90.2C20.2,90.2,0,69.9,0,45.1S20.2,0,45.1,0c24.9,0,45.1,20.2,45.1,45.1S69.9,90.2,45.1,90.2z M45.1,1
			C20.8,1,1,20.8,1,45.1s19.8,44.1,44.1,44.1s44.1-19.8,44.1-44.1S69.4,1,45.1,1z"/>
	</g>
</g>
</svg>
