<?xml version="1.0" encoding="iso-8859-1"?>
<!-- Generator: Adobe Illustrator 19.0.0, SVG Export Plug-In . SVG Version: 6.00 Build 0)  -->
<svg version="1.1" id="Layer_1" xmlns="http://www.w3.org/2000/svg" xmlns:xlink="http://www.w3.org/1999/xlink" x="0px" y="0px"
	 viewBox="0 0 224 224" style="enable-background:new 0 0 224 224;" xml:space="preserve">
<g>
	<g>
		<g>
			<path d="M204.029,117H19.971C8.959,117,0,125.973,0,137v28c0,11.027,8.959,20,19.971,20h184.058c11.012,0,19.971-8.973,19.971-20
				v-28C224,125.973,215.041,117,204.029,117z M216,165c0,6.617-5.369,12-11.971,12H19.971C13.369,177,8,171.617,8,165v-28
				c0-6.617,5.369-12,11.971-12h184.058c6.602,0,11.971,5.383,11.971,12V165z"/>
			<path d="M177,135c-8.272,0-15,6.728-15,15c0,8.272,6.728,15,15,15c8.272,0,15-6.728,15-15C192,141.728,185.272,135,177,135z
				 M177,157c-3.859,0-7-3.141-7-7s3.141-7,7-7s7,3.141,7,7S180.859,157,177,157z"/>
			<rect x="24" y="139" width="8" height="20"/>
			<rect x="44" y="139" width="8" height="20"/>
			<rect x="64" y="139" width="8" height="20"/>
			<rect x="84" y="139" width="8" height="20"/>
			<rect x="104" y="139" width="8" height="20"/>
			<rect x="148" y="39" width="8" height="72"/>
			<rect x="68" y="39" width="8" height="72"/>
		</g>
	</g>
</g>
<g>
</g>
<g>
</g>
<g>
</g>
<g>
</g>
<g>
</g>
<g>
</g>
<g>
</g>
<g>
</g>
<g>
</g>
<g>
</g>
<g>
</g>
<g>
</g>
<g>
</g>
<g>
</g>
<g>
</g>
</svg>
